<svg xmlns="http://www.w3.org/2000/svg" viewBox="0 0 80 80" width="80" height="80">
  <path d="M34,8 C34,5 46,5 46,8 L45,16 H35 Z" fill="#E8B05E"/>
  <rect x="30" y="15" width="20" height="7" rx="3" fill="#E87EA8"/>
  <path d="M26,22 h28 a6,6 0 0 1 6,6 v32 a8,8 0 0 1 -8,8 H28 a8,8 0 0 1 -8,-8 V28 a6,6 0 0 1 6,-6 Z" fill="#FBF6EC"/>
  <path d="M20,48 h40 v12 a8,8 0 0 1 -8,8 H28 a8,8 0 0 1 -8,-8 Z" fill="#BFE3F0"/>
  <g stroke="#2E9BB5" stroke-width="2" stroke-linecap="round">
    <line x1="52" y1="32" x2="58" y2="32"/>
    <line x1="52" y1="40" x2="58" y2="40"/>
  </g>
</svg>
